<?xml version="1.0" standalone="no"?><!DOCTYPE svg PUBLIC "-//W3C//DTD SVG 1.1//EN" "http://www.w3.org/Graphics/SVG/1.1/DTD/svg11.dtd"><svg t="1578627791264" class="icon" viewBox="0 0 1127 1024" version="1.1" xmlns="http://www.w3.org/2000/svg" p-id="4851" xmlns:xlink="http://www.w3.org/1999/xlink" width="220.1171875" height="200"><defs><style type="text/css">@font-face { font-family: yourDictFontAwesome; src: url("chrome-extension://gadchikmclhpfefmocfeadjhljpmnekj/lib/fontawesome-webfont.ttf") format("truetype"); font-weight: normal; font-style: normal; }
</style></defs><path d="M751.817125 241.327048a40.08125 40.08125 0 0 0-56.699542 0l-132.225837 132.241499L430.728561 241.327048a40.096913 40.096913 0 0 0-56.699541 56.683878l92.191574 92.207238H402.535419a40.096913 40.096913 0 0 0 0 80.193827h120.29074v78.940798H402.535419a40.096913 40.096913 0 0 0 0 80.193826h120.29074v121.402803a40.096913 40.096913 0 1 0 80.193826 0v-121.38714h120.29074a40.096913 40.096913 0 1 0 0-80.193827H603.019985v-78.95646h120.29074a40.096913 40.096913 0 1 0 0-80.178164h-63.685175L751.817125 298.026589a40.08125 40.08125 0 0 0 0-56.699541z" p-id="4852" fill="#ffffff"></path><path d="M1027.483404 591.830456a40.065588 40.065588 0 0 0-48.962091 28.600377C928.807406 809.418862 757.534067 941.409756 561.857998 941.409756a431.527367 431.527367 0 0 1-399.637791-269.839696h78.705856L119.820854 510.414927 0 671.57006h76.747998c1.080737 3.226548 2.177137 6.453097 3.320526 9.663983a511.079016 511.079016 0 0 0 481.789474 340.36954c232.076549 0 435.286452-156.628568 494.163131-380.811037A40.08125 40.08125 0 0 0 1027.483404 591.830456zM95.700055 433.165717a40.065588 40.065588 0 0 0 48.74281-28.944959 430.243012 430.243012 0 0 1 417.430796-324.221135c178.556567 0 334.824889 107.13394 399.825744 270.152953h-79.207066l121.05822 161.155134 119.805191-161.155134h-76.434741a511.032028 511.032028 0 0 0-980.150251 34.285994 40.08125 40.08125 0 0 0 28.929297 48.727147z" p-id="4853" fill="#ffffff"></path></svg>