<?xml version="1.0" standalone="no"?><!DOCTYPE svg PUBLIC "-//W3C//DTD SVG 1.1//EN" "http://www.w3.org/Graphics/SVG/1.1/DTD/svg11.dtd"><svg t="1578377195664" class="icon" viewBox="0 0 2792 1024" version="1.1" xmlns="http://www.w3.org/2000/svg" p-id="4602" xmlns:xlink="http://www.w3.org/1999/xlink" width="545.3125" height="200"><defs><style type="text/css">@font-face { font-family: yourDictFontAwesome; src: url("chrome-extension://gadchikmclhpfefmocfeadjhljpmnekj/lib/fontawesome-webfont.ttf") format("truetype"); font-weight: normal; font-style: normal; }
</style></defs><path d="M0 0m53.872757 0l1508.437189 0q53.872757 0 53.872757 53.872757l0 484.854811q0 53.872757-53.872757 53.872756l-1508.437189 0q-53.872757 0-53.872757-53.872756l0-484.854811q0-53.872757 53.872757-53.872757Z" fill="#50A1FE" p-id="4603"></path><path d="M206.063295 179.665644v31.08458a5.387276 5.387276 0 0 1 0 1.346819 10.020333 10.020333 0 0 1-18.586101 3.824966 9.858714 9.858714 0 0 1-1.346819-3.824966 5.387276 5.387276 0 0 1 0-1.346819v-31.08458a10.128078 10.128078 0 0 1 20.256156 0z m124.230577 31.08458V298.455072h-20.256157V210.750224a5.387276 5.387276 0 0 0-1.616183-3.824965 5.387276 5.387276 0 0 0-3.771093-1.56231h-18.693846v-20.31003h18.693846a25.643432 25.643432 0 0 1 25.643433 25.643433z m-116.85001-25.697305h37.333821v20.256157h-37.333821z m14.922754 217.322701v20.31003H159.732724a25.751178 25.751178 0 0 1-25.697305-25.697305V210.750224a25.751178 25.751178 0 0 1 25.697305-25.697305h18.639974v20.31003h-18.639974a5.387276 5.387276 0 0 0-5.387276 5.387275v186.238121a5.387276 5.387276 0 0 0 5.387276 5.387275z m50.155536-222.709976v31.08458a5.387276 5.387276 0 0 1 0 1.346819 10.020333 10.020333 0 0 1-19.93292 0 5.387276 5.387276 0 0 1 0-1.346819v-31.08458a10.128078 10.128078 0 1 1 20.256157 0h-0.323237z" fill="#FFFFFF" p-id="4604"></path><path d="M296.300162 257.296286a9.535478 9.535478 0 0 0-8.99675-10.128078H177.133624a9.589351 9.589351 0 0 0-8.99675 10.128078 9.697096 9.697096 0 0 0 8.99675 10.181951h110.115915A9.643223 9.643223 0 0 0 296.300162 257.296286z m-36.74122 41.482023a9.589351 9.589351 0 0 0-8.99675-10.128078H177.133624a10.181951 10.181951 0 0 0 0 20.256156H250.508319a9.535478 9.535478 0 0 0 8.99675-10.128078z m-82.425318 31.138453a10.235824 10.235824 0 0 0-8.835132 11.474898A10.074206 10.074206 0 0 0 177.133624 350.172919h36.633475a10.235824 10.235824 0 0 0 0-20.310029zM247.814681 422.254667a7.326695 7.326695 0 0 1-5.387276-2.15491 7.596059 7.596059 0 0 1-2.208783-5.387275V347.533154a7.488313 7.488313 0 0 1 14.922754 0v49.293572l23.434649-23.434649a7.542186 7.542186 0 0 1 10.774552 0l5.387275 5.387276 18.262865-18.262865-2.316529-1.885546a7.380568 7.380568 0 0 1-3.016874-5.979876 7.43444 7.43444 0 0 1 7.43444-7.434441h23.003667v22.949795a7.43444 7.43444 0 0 1-7.43444 7.43444 7.488313 7.488313 0 0 1-5.387276-2.532019l-2.047164-2.208783-23.43465 23.434649a7.380568 7.380568 0 0 1-10.505187 0h-0.269364l-5.387276-5.387276-18.155119 18.208992h70.034584a7.43444 7.43444 0 1 1 0 14.868881z" fill="#FFFFFF" p-id="4605"></path></svg>