<?xml version="1.0" standalone="no"?><!DOCTYPE svg PUBLIC "-//W3C//DTD SVG 1.1//EN" "http://www.w3.org/Graphics/SVG/1.1/DTD/svg11.dtd"><svg t="1578377180919" class="icon" viewBox="0 0 2792 1024" version="1.1" xmlns="http://www.w3.org/2000/svg" p-id="4334" xmlns:xlink="http://www.w3.org/1999/xlink" width="545.3125" height="200"><defs><style type="text/css">@font-face { font-family: yourDictFontAwesome; src: url("chrome-extension://gadchikmclhpfefmocfeadjhljpmnekj/lib/fontawesome-webfont.ttf") format("truetype"); font-weight: normal; font-style: normal; }
</style></defs><path d="M0 0m53.872757 0l1508.437189 0q53.872757 0 53.872757 53.872757l0 484.854811q0 53.872757-53.872757 53.872756l-1508.437189 0q-53.872757 0-53.872757-53.872756l0-484.854811q0-53.872757 53.872757-53.872757Z" fill="#FD5C5C" p-id="4335"></path><path d="M358.469323 357.499614h-32.593017v-32.323654a10.774551 10.774551 0 1 0-21.549103 0v32.323654h-32.754636a10.774551 10.774551 0 0 0 0 21.549103h32.64689v32.323654a10.774551 10.774551 0 0 0 21.549103 0v-32.323654h32.593018a10.774551 10.774551 0 0 0 0-21.549103z m-122.829885-122.021794h108.553605l-13.68368 67.502564a67.2332 67.2332 0 0 1 20.741011 8.781259l17.831883-83.987627a11.798134 11.798134 0 0 0-2.747511-10.181951 12.067498 12.067498 0 0 0-9.697096-4.09433H235.639438a11.097788 11.097788 0 1 0 0 21.980085z" fill="#FFFFFF" p-id="4336"></path><path d="M190.978923 298.616691h88.243575a12.390734 12.390734 0 1 0 0.430982-24.781468H187.423321l-13.468189-94.223452A11.959752 11.959752 0 0 0 161.61827 169.483693h-41.589768a12.444607 12.444607 0 0 0 0 24.835341h33.508855l22.895921 157.362322A11.905879 11.905879 0 0 0 188.554649 361.755562h59.260032a66.856091 66.856091 0 0 1 6.087622-21.980085H196.851053zM185.64552 377.109297a21.872339 21.872339 0 1 0 21.872339 21.87234A21.872339 21.872339 0 0 0 185.64552 377.109297z" fill="#FFFFFF" p-id="4337"></path></svg>