<?xml version="1.0" standalone="no"?><!DOCTYPE svg PUBLIC "-//W3C//DTD SVG 1.1//EN" "http://www.w3.org/Graphics/SVG/1.1/DTD/svg11.dtd"><svg t="1578627305351" class="icon" viewBox="0 0 1024 1024" version="1.1" xmlns="http://www.w3.org/2000/svg" p-id="4669" xmlns:xlink="http://www.w3.org/1999/xlink" width="200" height="200"><defs><style type="text/css">@font-face { font-family: yourDictFontAwesome; src: url("chrome-extension://gadchikmclhpfefmocfeadjhljpmnekj/lib/fontawesome-webfont.ttf") format("truetype"); font-weight: normal; font-style: normal; }
</style></defs><path d="M640.326809 85.62383h-43.574469a85.62383 85.62383 0 0 0-171.247659 0h-43.574468a43.574468 43.574468 0 0 0-43.574468 43.574468v43.574468a43.574468 43.574468 0 0 0 43.574468 43.574468h258.614468a43.574468 43.574468 0 0 0 43.574468-43.574468v-43.574468a43.574468 43.574468 0 0 0-43.79234-43.574468z m0 84.75234H383.673191V128.326809h87.148937v-43.574469a42.049362 42.049362 0 0 1 84.098723 0v43.574469h87.148936z" p-id="4670" fill="#ffffff"></path><path d="M854.277447 85.62383H737.715745a106.975319 106.975319 0 0 1 8.932766 43.574468v43.574468a106.757447 106.757447 0 0 1-106.97532 106.757447H383.673191a106.757447 106.757447 0 0 1-106.975319-106.757447v-43.574468a107.193191 107.193191 0 0 1 8.932766-43.574468H169.722553A85.62383 85.62383 0 0 0 84.098723 171.24766v767.12851A85.62383 85.62383 0 0 0 169.722553 1024h684.554894a85.62383 85.62383 0 0 0 85.62383-85.62383V171.24766a85.62383 85.62383 0 0 0-85.62383-85.62383z m23.965957 852.75234a23.965957 23.965957 0 0 1-23.965957 23.965958H169.722553a23.965957 23.965957 0 0 1-23.965957-23.965958V171.24766a23.965957 23.965957 0 0 1 23.965957-23.965958H214.822128v23.965958a168.633191 168.633191 0 0 0 168.633191 168.415319h256.87149a168.633191 168.633191 0 0 0 168.633191-168.415319v-23.965958h45.317447a23.965957 23.965957 0 0 1 23.965957 23.965958z" p-id="4671" fill="#ffffff"></path><path d="M640.762553 415.918298a32.027234 32.027234 0 0 0-45.317447 45.317447l21.787234 21.787234H330.076596a32.245106 32.245106 0 0 0 0 64.27234H694.141277a32.027234 32.027234 0 0 0 21.787234-54.90383zM694.141277 610.042553H330.076596a32.027234 32.027234 0 0 0-32.027234 32.680851 31.591489 31.591489 0 0 0 9.586383 21.787234l75.601702 76.255319a32.027234 32.027234 0 0 0 45.317447-45.317446l-21.787234-21.787234H694.141277A32.245106 32.245106 0 0 0 694.141277 610.042553z" p-id="4672" fill="#ffffff"></path></svg>