<?xml version="1.0" standalone="no"?><!DOCTYPE svg PUBLIC "-//W3C//DTD SVG 1.1//EN" "http://www.w3.org/Graphics/SVG/1.1/DTD/svg11.dtd"><svg t="1578377205038" class="icon" viewBox="0 0 2792 1024" version="1.1" xmlns="http://www.w3.org/2000/svg" p-id="4870" xmlns:xlink="http://www.w3.org/1999/xlink" width="545.3125" height="200"><defs><style type="text/css">@font-face { font-family: yourDictFontAwesome; src: url("chrome-extension://gadchikmclhpfefmocfeadjhljpmnekj/lib/fontawesome-webfont.ttf") format("truetype"); font-weight: normal; font-style: normal; }
</style></defs><path d="M0 0m53.872757 0l1508.437189 0q53.872757 0 53.872757 53.872757l0 484.854811q0 53.872757-53.872757 53.872756l-1508.437189 0q-53.872757 0-53.872757-53.872756l0-484.854811q0-53.872757 53.872757-53.872757Z" fill="#FF7743" p-id="4871"></path><path d="M285.525611 229.336326a9.96646 9.96646 0 0 0-14.06079 0l-32.754636 32.754636-32.754636-32.754636a9.96646 9.96646 0 0 0-14.060789 14.060789l22.842048 22.842049H199.3292a9.96646 9.96646 0 0 0 0 19.879047h29.791634v19.555811H199.3292a9.96646 9.96646 0 0 0 0 19.879047h29.791634V355.560195a9.96646 9.96646 0 1 0 19.879048 0v-30.007126h29.845507a9.96646 9.96646 0 0 0 0-19.879047h-30.114871v-19.555811h29.845507a9.96646 9.96646 0 1 0 0.377109-19.879047h-16.161827L285.525611 243.397115a9.96646 9.96646 0 0 0 0-14.060789z" fill="#FFFFFF" p-id="4872"></path><path d="M353.944012 316.179209A9.96646 9.96646 0 0 0 341.822642 323.236541a106.775804 106.775804 0 0 1-202.292202 12.71397h19.501938L129.294616 296.300162l-29.737762 39.919713H118.520065c0 0.808091 0.538728 1.616183 0.808091 2.424274A126.654851 126.654851 0 0 0 360.94747 328.623816a9.96646 9.96646 0 0 0-7.003458-12.444607zM123.045376 276.90597a9.96646 9.96646 0 0 0 12.067498-7.165077 106.775804 106.775804 0 0 1 202.507693-13.360444H317.849265L348.018009 296.300162l29.683889-39.919713h-18.963211a126.600978 126.600978 0 0 0-242.858387 8.458023 9.912587 9.912587 0 0 0 7.165076 12.067498z" fill="#FFFFFF" p-id="4873"></path></svg>