<?xml version="1.0" standalone="no"?><!DOCTYPE svg PUBLIC "-//W3C//DTD SVG 1.1//EN" "http://www.w3.org/Graphics/SVG/1.1/DTD/svg11.dtd"><svg t="1578624922374" class="icon" viewBox="0 0 1024 1024" version="1.1" xmlns="http://www.w3.org/2000/svg" p-id="4488" xmlns:xlink="http://www.w3.org/1999/xlink" width="200" height="200"><defs><style type="text/css">@font-face { font-family: yourDictFontAwesome; src: url("chrome-extension://gadchikmclhpfefmocfeadjhljpmnekj/lib/fontawesome-webfont.ttf") format("truetype"); font-weight: normal; font-style: normal; }
</style></defs><path d="M380.514043 40.96v125.71234a23.31234 23.31234 0 0 1 0 5.446809 40.524255 40.524255 0 0 1-75.165958 15.468936 37.474043 37.474043 0 0 1-5.446808-15.468936 23.31234 23.31234 0 0 1 0-5.446809V40.96a40.96 40.96 0 1 1 81.92 0zM882.92766 166.67234v354.914043h-81.92V166.67234a21.787234 21.787234 0 0 0-6.536171-15.468936 21.787234 21.787234 0 0 0-15.251063-6.318298H703.618723V62.747234h75.601703a103.707234 103.707234 0 0 1 103.707234 103.925106zM410.362553 62.747234h150.985532v81.92h-150.985532zM470.713191 941.862128V1024H193.14383A104.142979 104.142979 0 0 1 89.218723 920.074894V166.67234a104.142979 104.142979 0 0 1 103.925107-103.925106h75.38383v82.137872H193.14383a21.787234 21.787234 0 0 0-21.787234 21.787234v753.402554a21.787234 21.787234 0 0 0 21.787234 21.787234zM673.55234 40.96v125.71234a23.31234 23.31234 0 0 1 0 5.446809 40.524255 40.524255 0 0 1-80.612766 0 23.31234 23.31234 0 0 1 0-5.446809V40.96a40.96 40.96 0 1 1 81.92 0z" p-id="4489" fill="#ffffff"></path><path d="M745.23234 354.914043a38.781277 38.781277 0 0 0-36.38468-40.96H263.516596a38.781277 38.781277 0 0 0-36.384681 40.96A38.999149 38.999149 0 0 0 263.516596 396.091915h445.331064a38.999149 38.999149 0 0 0 36.38468-41.177872zM596.643404 522.893617a38.781277 38.781277 0 0 0-36.384681-40.96H263.516596a41.177872 41.177872 0 0 0 0 81.92h296.742127A38.781277 38.781277 0 0 0 596.643404 522.893617zM263.516596 648.82383a41.395745 41.395745 0 0 0 0 82.137872h148.153191a41.395745 41.395745 0 0 0 0-82.137872zM548.711489 1022.257021a29.848511 29.848511 0 0 1-21.787234-8.714893 30.284255 30.284255 0 0 1-8.932766-21.787234V720.068085a30.284255 30.284255 0 0 1 60.350639 0v199.353192l94.774468-94.774468a30.284255 30.284255 0 0 1 43.574468 0l21.787234 21.787234 73.858723-73.858724-9.36851-7.625532A29.630638 29.630638 0 0 1 790.76766 740.765957a30.066383 30.066383 0 0 1 30.066383-30.066383h93.031489v92.813617a30.066383 30.066383 0 0 1-30.066383 30.066383 30.72 30.72 0 0 1-21.787234-10.24l-7.625532-8.932765-94.774468 94.774468a30.066383 30.066383 0 0 1-43.574468 0l-21.787234-21.787234-73.422979 73.640851h283.234043a30.066383 30.066383 0 0 1 0 60.132766z" p-id="4490" fill="#ffffff"></path></svg>