<?xml version="1.0" standalone="no"?><!DOCTYPE svg PUBLIC "-//W3C//DTD SVG 1.1//EN" "http://www.w3.org/Graphics/SVG/1.1/DTD/svg11.dtd"><svg t="1578560772433" class="icon" viewBox="0 0 1024 1024" version="1.1" xmlns="http://www.w3.org/2000/svg" p-id="8909" xmlns:xlink="http://www.w3.org/1999/xlink" width="200" height="200"><defs><style type="text/css">@font-face { font-family: yourDictFontAwesome; src: url("chrome-extension://gadchikmclhpfefmocfeadjhljpmnekj/lib/fontawesome-webfont.ttf") format("truetype"); font-weight: normal; font-style: normal; }
</style></defs><path d="M606.477742 601.747075h-63.881304V537.878248a31.940652 31.940652 0 0 0-63.881304 0v63.868827h-63.881304a31.940652 31.940652 0 0 0 0 63.881304h63.881304v63.881304a31.940652 31.940652 0 0 0 63.881304 0v-63.893781h63.881304a31.940652 31.940652 0 0 0 0-63.881304z" p-id="8910" fill="#ffffff"></path><path d="M817.909887 70.90841H690.159755l-21.085821-52.402633A31.965606 31.965606 0 0 0 640.389732 0.002658H380.33543A31.953129 31.953129 0 0 0 350.927572 18.530731l-23.705952 51.741361H199.558826A91.355256 91.355256 0 0 0 110.125 159.705918v772.314985a91.342779 91.342779 0 0 0 93.264209 90.057667h614.520678A91.342779 91.342779 0 0 0 911.136665 933.293539v-773.562667a91.342779 91.342779 0 0 0-93.264209-88.797509zM400.834841 63.883962h220.328115l47.274661 104.131516H353.510273z m447.169129 868.124465a27.448998 27.448998 0 0 1-29.395381 24.953634h-615.107089a27.448998 27.448998 0 0 1-29.382905-24.953634v-772.314986a27.448998 27.448998 0 0 1 29.270614-25.589952h98.379703l-23.643568 52.402632a31.940652 31.940652 0 0 0 23.643568 45.365708h414.579683a31.953129 31.953129 0 0 0 29.382904-45.365708l-23.643568-52.402632h95.821956a27.448998 27.448998 0 0 1 29.395381 25.552522z" p-id="8911" fill="#ffffff"></path></svg>