<?xml version="1.0" standalone="no"?><!DOCTYPE svg PUBLIC "-//W3C//DTD SVG 1.1//EN" "http://www.w3.org/Graphics/SVG/1.1/DTD/svg11.dtd"><svg t="1578377191311" class="icon" viewBox="0 0 2792 1024" version="1.1" xmlns="http://www.w3.org/2000/svg" p-id="4468" xmlns:xlink="http://www.w3.org/1999/xlink" width="545.3125" height="200"><defs><style type="text/css">@font-face { font-family: yourDictFontAwesome; src: url("chrome-extension://gadchikmclhpfefmocfeadjhljpmnekj/lib/fontawesome-webfont.ttf") format("truetype"); font-weight: normal; font-style: normal; }
</style></defs><path d="M0 0m53.872757 0l1508.437189 0q53.872757 0 53.872757 53.872757l0 484.854811q0 53.872757-53.872757 53.872756l-1508.437189 0q-53.872757 0-53.872757-53.872756l0-484.854811q0-53.872757 53.872757-53.872757Z" fill="#7562FF" p-id="4469"></path><path d="M260.851888 318.765102h-15.83859v-15.838591a7.919295 7.919295 0 1 0-15.784718 0v15.838591h-15.83859a7.919295 7.919295 0 0 0 0 15.83859h15.83859v15.838591a7.919295 7.919295 0 0 0 15.784718 0v-15.838591h15.83859a7.919295 7.919295 0 0 0 0-15.83859z" fill="#FFFFFF" p-id="4470"></path><path d="M313.216208 187.261702h-31.623308l-5.387276-12.983334A7.973168 7.973168 0 0 0 269.363784 169.699184H204.716476a7.919295 7.919295 0 0 0-7.272822 4.579184l-5.872131 12.821716h-31.515563a22.626558 22.626558 0 0 0-22.141703 22.141703v191.356032a22.626558 22.626558 0 0 0 22.949795 22.303322h152.352156a22.626558 22.626558 0 0 0 23.111412-21.980085V209.29566a22.626558 22.626558 0 0 0-23.111412-22.033958zM210.103751 185.537774h54.411485l11.690388 25.805051H198.197872z m110.60077 215.060045a6.734095 6.734095 0 0 1-7.272822 6.141495H161.02567a6.734095 6.734095 0 0 1-7.272822-6.141495V209.241787a6.787967 6.787967 0 0 1 7.218949-6.303112h24.404359l-5.87213 12.983334A7.919295 7.919295 0 0 0 183.167373 226.265578a7.649931 7.649931 0 0 0 2.15491 0.646473h102.735347A7.919295 7.919295 0 0 0 296.300162 219.315993a7.973168 7.973168 0 0 0-0.700346-3.393984l-5.87213-12.983334h23.704013a6.84184 6.84184 0 0 1 7.326695 6.249239z" fill="#FFFFFF" p-id="4471"></path></svg>