<?xml version="1.0" standalone="no"?><!DOCTYPE svg PUBLIC "-//W3C//DTD SVG 1.1//EN" "http://www.w3.org/Graphics/SVG/1.1/DTD/svg11.dtd"><svg t="1578377210418" class="icon" viewBox="0 0 2792 1024" version="1.1" xmlns="http://www.w3.org/2000/svg" p-id="5004" xmlns:xlink="http://www.w3.org/1999/xlink" width="545.3125" height="200"><defs><style type="text/css">@font-face { font-family: yourDictFontAwesome; src: url("chrome-extension://gadchikmclhpfefmocfeadjhljpmnekj/lib/fontawesome-webfont.ttf") format("truetype"); font-weight: normal; font-style: normal; }
</style></defs><path d="M0 0m53.872757 0l1508.437189 0q53.872757 0 53.872757 53.872757l0 484.854811q0 53.872757-53.872757 53.872756l-1508.437189 0q-53.872757 0-53.872757-53.872756l0-484.854811q0-53.872757 53.872757-53.872757Z" fill="#28C1C1" p-id="5005"></path><path d="M270.225748 190.655686h-10.774551a21.171993 21.171993 0 1 0-42.343987 0h-10.774552a10.774551 10.774551 0 0 0-10.774551 10.774552v10.774551a10.774551 10.774551 0 0 0 10.774551 10.774551h63.946963a10.774551 10.774551 0 0 0 10.774551-10.774551v-10.774551a10.774551 10.774551 0 0 0-10.774551-10.774552z m0 20.956503H206.76364v-10.397443h21.549103v-10.774551a10.397442 10.397442 0 0 1 20.794884 0v10.774551h21.549103z" fill="#FFFFFF" p-id="5006"></path><path d="M323.236541 190.655686h-28.929671a25.751178 25.751178 0 0 1 2.208783 10.774552v10.774551a26.397651 26.397651 0 0 1-26.397651 26.397651H206.76364a26.397651 26.397651 0 0 1-26.451523-26.343778v-10.774552a27.74447 27.74447 0 0 1 2.208783-10.774551h-28.660307a21.171993 21.171993 0 0 0-21.171993 21.171993v189.632104a21.171993 21.171993 0 0 0 21.171993 21.171994H323.236541a21.171993 21.171993 0 0 0 21.171993-21.171994V211.82768A21.171993 21.171993 0 0 0 323.236541 190.655686z m5.926003 210.85797a5.926003 5.926003 0 0 1-5.926003 5.926003H153.860593a5.926003 5.926003 0 0 1-5.926003-5.926003V211.82768a5.926003 5.926003 0 0 1 5.926003-5.926004h11.151661v5.926004a41.697514 41.697514 0 0 0 41.697514 41.643641h63.51598a41.643641 41.643641 0 0 0 41.697514-41.643641v-5.926004H323.236541a5.926003 5.926003 0 0 1 5.926003 5.926004z" fill="#FFFFFF" p-id="5007"></path><path d="M270.333493 272.326785a7.919295 7.919295 0 0 0-11.205533 11.205534l5.387276 5.387275H193.510942a7.973168 7.973168 0 0 0 0 15.892464h90.021377a7.865422 7.865422 0 0 0 7.757677-8.027041 7.703804 7.703804 0 0 0-2.370402-5.387276z m13.198826 48.000627H193.510942a7.919295 7.919295 0 0 0-7.919295 7.919295 7.757677 7.757677 0 0 0 2.370401 5.387276l18.693847 18.855464a7.919295 7.919295 0 1 0 11.205533-11.205533l-5.387275-5.387276h71.058166a7.973168 7.973168 0 0 0 0-15.730845z" fill="#FFFFFF" p-id="5008"></path></svg>