<?xml version="1.0" standalone="no"?><!DOCTYPE svg PUBLIC "-//W3C//DTD SVG 1.1//EN" "http://www.w3.org/Graphics/SVG/1.1/DTD/svg11.dtd"><svg t="1578558630287" class="icon" viewBox="0 0 1059 1024" version="1.1" xmlns="http://www.w3.org/2000/svg" p-id="4488" width="206.8359375" height="200" xmlns:xlink="http://www.w3.org/1999/xlink"><defs><style type="text/css">@font-face { font-family: yourDictFontAwesome; src: url("chrome-extension://gadchikmclhpfefmocfeadjhljpmnekj/lib/fontawesome-webfont.ttf") format("truetype"); font-weight: normal; font-style: normal; }
</style></defs><path d="M1012.714228 758.803708h-131.559855V627.179363a43.853285 43.853285 0 0 0-87.70657 0v131.624345h-131.559855a43.853285 43.853285 0 1 0 0 87.70657h131.559855v131.559855a43.853285 43.853285 0 0 0 87.70657 0v-131.559855h131.559855a43.853285 43.853285 0 1 0 0-87.70657zM516.96574 266.266828h438.055622l-55.203547 272.406288a270.265216 270.265216 0 0 1 83.746877 35.546957l71.945183-338.960097a48.316002 48.316002 0 0 0-10.163644-41.222088c-9.596131-11.788795-23.977428-16.561064-39.197098-16.561064H516.96574c-27.859734 0-50.431278 16.52237-50.431278 44.382104s22.571544 44.4079 50.431278 44.4079z" p-id="4489" fill="#ffffff"></path><path d="M336.638452 521.08021h356.24345a50.057235 50.057235 0 1 0 0-100.101572H322.373237L268.020959 40.822249C264.409512 16.045143 243.166465 0 218.092705 0H50.431278a50.044337 50.044337 0 1 0 0 100.088674h135.106811l92.41435 635.176139c3.598549 24.790004 24.854494 40.680371 49.915356 40.68037h239.34865a269.439742 269.439742 0 0 1 24.428859-88.738412H360.435308z m-21.449415 317.291414a88.274083 88.274083 0 1 0 88.286981 88.274083 88.274083 88.274083 0 0 0-88.248287-88.261185z" p-id="4490" fill="#ffffff"></path></svg>