<?xml version="1.0" standalone="no"?><!DOCTYPE svg PUBLIC "-//W3C//DTD SVG 1.1//EN" "http://www.w3.org/Graphics/SVG/1.1/DTD/svg11.dtd"><svg t="1578562190925" class="icon" viewBox="0 0 1024 1024" version="1.1" xmlns="http://www.w3.org/2000/svg" p-id="9090" xmlns:xlink="http://www.w3.org/1999/xlink" width="200" height="200"><defs><style type="text/css">@font-face { font-family: yourDictFontAwesome; src: url("chrome-extension://gadchikmclhpfefmocfeadjhljpmnekj/lib/fontawesome-webfont.ttf") format("truetype"); font-weight: normal; font-style: normal; }
</style></defs><path d="M877.698723 54.90383h-123.533617V9.150638a8.932766 8.932766 0 0 0-8.932766-9.150638h-64.054468a9.150638 9.150638 0 0 0-9.150638 9.150638v45.753192h-174.297872V9.150638a8.932766 8.932766 0 0 0-8.497022-9.150638h-64.054468a9.150638 9.150638 0 0 0-9.150638 9.150638v45.753192H292.493617A36.602553 36.602553 0 0 0 255.891064 91.506383v137.041702h-108.93617A36.602553 36.602553 0 0 0 109.698723 265.150638v722.246809A36.602553 36.602553 0 0 0 146.301277 1024h585.205106a36.602553 36.602553 0 0 0 36.384681-36.602553v-108.93617h108.93617a36.602553 36.602553 0 0 0 36.602553-36.602554V91.506383a36.602553 36.602553 0 0 0-35.731064-36.602553z m-191.945532 886.740425H192.054468V310.90383h249.028085v198.917447a45.753191 45.753191 0 0 0 45.753192 45.535319h198.917446v386.287659z m0-459.274893h-171.465531v-171.465532l171.247659 171.029787z m146.192341 313.082553h-64.054468V447.945532L548.493617 228.548085h-210.246808v-91.506383h77.780425V174.297872a9.150638 9.150638 0 0 0 9.150638 9.150639h64.054468a9.150638 9.150638 0 0 0 9.150639-9.150639V137.041702h174.297872V174.297872a9.150638 9.150638 0 0 0 9.150638 9.150639h64.054468a8.932766 8.932766 0 0 0 8.279149-9.150639V137.041702h77.780426v658.410213z" p-id="9091" fill="#ffffff"></path></svg>