<?xml version="1.0" standalone="no"?><!DOCTYPE svg PUBLIC "-//W3C//DTD SVG 1.1//EN" "http://www.w3.org/Graphics/SVG/1.1/DTD/svg11.dtd"><svg t="1578377219381" class="icon" viewBox="0 0 2792 1024" version="1.1" xmlns="http://www.w3.org/2000/svg" p-id="5272" xmlns:xlink="http://www.w3.org/1999/xlink" width="545.3125" height="200"><defs><style type="text/css">@font-face { font-family: yourDictFontAwesome; src: url("chrome-extension://gadchikmclhpfefmocfeadjhljpmnekj/lib/fontawesome-webfont.ttf") format("truetype"); font-weight: normal; font-style: normal; }
</style></defs><path d="M0 0m53.872757 0l1508.437189 0q53.872757 0 53.872757 53.872757l0 484.854811q0 53.872757-53.872757 53.872756l-1508.437189 0q-53.872757 0-53.872757-53.872756l0-484.854811q0-53.872757 53.872757-53.872757Z" fill="#FF9920" p-id="5273"></path><path d="M132.419236 416.759646A19.555811 19.555811 0 0 1 113.132789 397.149963V189.039503a19.555811 19.555811 0 0 1 19.501938-19.55581h174.817096a19.663556 19.663556 0 0 1 19.501938 19.55581v86.196411H307.074714v-86.196411H132.526982v207.894969h100.095582v19.825174z" fill="#FFFFFF" p-id="5274"></path><path d="M175.67906 280.946426a9.750969 9.750969 0 0 1-8.673514-4.90242 10.020333 10.020333 0 0 1 0-9.858715 9.697096 9.697096 0 0 1 8.458023-4.848548h87.543229a9.804842 9.804842 0 0 1 6.895713 16.754427 9.481605 9.481605 0 0 1-6.787967 2.855256z m149.012045 141.200496a11.852006 11.852006 0 0 1-9.481605-18.478356l2.963001-4.30982h-43.098205l2.963002 4.30982a11.798134 11.798134 0 0 1 2.101037 6.680222 11.582643 11.582643 0 0 1-23.05754 1.616183 8.080914 8.080914 0 0 1 0-1.616183 11.52877 11.52877 0 0 1 2.154911-6.734094l2.639765-3.771093-4.579185-0.538728a14.276281 14.276281 0 0 1-12.12137-11.097788l-15.030499-57.051249a14.330153 14.330153 0 0 1 2.262656-12.390734 13.845298 13.845298 0 0 1 11.15166-5.710512H344.785643l2.909129-17.939628a9.212241 9.212241 0 0 1 3.71722-6.033749 9.050623 9.050623 0 0 1 5.387276-1.723928h1.508437a9.319987 9.319987 0 0 1 7.434441 10.774551l-14.65339 89.267158a14.006917 14.006917 0 0 1-13.791426 11.959752h-6.087621l2.909128 4.30982a11.798134 11.798134 0 0 1-2.963001 16.161827 12.013625 12.013625 0 0 1-6.464731 2.316529z m-62.384652-41.158786H334.011092l7.973168-49.455191H248.946009zM175.67906 241.34995a9.589351 9.589351 0 0 1-8.673514-4.848548 9.96646 9.96646 0 0 1 0-9.804842 9.697096 9.697096 0 0 1 8.458023-4.956293h87.543229a9.858714 9.858714 0 0 1 1.454565 19.609683 6.572476 6.572476 0 0 1-1.454565 0z m0 80.809135a9.750969 9.750969 0 0 1-8.673514-5.064039A9.96646 9.96646 0 0 1 167.005546 307.074714a9.750969 9.750969 0 0 1 8.458023-4.902421h30.330362a9.858714 9.858714 0 0 1 1.454564 19.609683h-31.784926z" fill="#FFFFFF" p-id="5275"></path><path d="M272.81164 360.94747a6.087622 6.087622 0 1 1-1.131328-12.175243 3.986584 3.986584 0 0 1 1.131328 0h49.724555a6.087622 6.087622 0 1 1 1.131328 12.175243h-50.855883z" fill="#FFFFFF" p-id="5276"></path></svg>