<?xml version="1.0" standalone="no"?><!DOCTYPE svg PUBLIC "-//W3C//DTD SVG 1.1//EN" "http://www.w3.org/Graphics/SVG/1.1/DTD/svg11.dtd"><svg t="1578377200481" class="icon" viewBox="0 0 2792 1024" version="1.1" xmlns="http://www.w3.org/2000/svg" p-id="4736" xmlns:xlink="http://www.w3.org/1999/xlink" width="545.3125" height="200"><defs><style type="text/css">@font-face { font-family: yourDictFontAwesome; src: url("chrome-extension://gadchikmclhpfefmocfeadjhljpmnekj/lib/fontawesome-webfont.ttf") format("truetype"); font-weight: normal; font-style: normal; }
</style></defs><path d="M0 0m53.872757 0l1508.437189 0q53.872757 0 53.872757 53.872757l0 484.854811q0 53.872757-53.872757 53.872756l-1508.437189 0q-53.872757 0-53.872757-53.872756l0-484.854811q0-53.872757 53.872757-53.872757Z" fill="#8088A8" p-id="4737"></path><path d="M368.651274 400.274583l-24.24274-24.242741a59.691014 59.691014 0 1 0-84.041501 9.37386 8.942878 8.942878 0 0 0-7.757677 0.538727l-22.572685 13.09108V297.593108l89.69814-50.909755v24.081122A8.619641 8.619641 0 0 0 328.623816 279.330244h1.56231a8.673514 8.673514 0 0 0 8.619641-8.565769V227.343034h-1.400691a14.276281 14.276281 0 0 0-4.740803-3.232366l-107.152913-53.872757a9.427732 9.427732 0 0 0-3.986584-0.969709 8.781259 8.781259 0 0 0-3.932711 0.915837l-107.152914 53.872756a11.474897 11.474897 0 0 0-4.686929 11.205534v114.264117a8.673514 8.673514 0 0 0 4.202075 7.488313c17.347028 10.774551 104.998003 63.354362 106.775803 64.162453a11.52877 11.52877 0 0 0 5.387276 1.508438 8.350277 8.350277 0 0 0 4.363693-1.077456l35.502147-20.202283a9.266114 9.266114 0 0 0 4.148202-5.387276 8.942878 8.942878 0 0 0-0.915836-6.734095l-1.239074-1.131328a59.260032 59.260032 0 0 0 64.647308 1.777801l25.158578 25.158578a10.397442 10.397442 0 0 0 14.707262 0 10.774551 10.774551 0 0 0 3.232366-7.380568 10.128078 10.128078 0 0 0-3.070748-7.43444zM297.700854 296.892762a42.02075 42.02075 0 1 1-42.02075 42.020751 42.074623 42.074623 0 0 1 42.02075-42.020751zM122.937631 344.785643V246.737226l89.590394 50.855882V398.6584zM309.768351 232.245454l-88.512939 50.371028-88.459067-50.371028 88.459067-44.229533z" fill="#FFFFFF" p-id="4738"></path><path d="M183.167373 292.098087l-35.663765-21.549103a10.343569 10.343569 0 0 0-4.740803-1.1852 12.390734 12.390734 0 0 0-2.101037 0 8.942878 8.942878 0 0 0-5.387276 3.932711 8.781259 8.781259 0 0 0 2.963002 12.229116l35.717638 21.549103a7.865422 7.865422 0 0 0 4.525311 1.239073 6.84184 6.84184 0 0 0 2.101038 0 8.511896 8.511896 0 0 0 5.387275-4.040457 8.727387 8.727387 0 0 0 1.023583-6.572476 8.942878 8.942878 0 0 0-3.824966-5.602767z" fill="#FFFFFF" p-id="4739"></path></svg>