<?xml version="1.0" standalone="no"?><!DOCTYPE svg PUBLIC "-//W3C//DTD SVG 1.1//EN" "http://www.w3.org/Graphics/SVG/1.1/DTD/svg11.dtd"><svg t="1578559857304" class="icon" viewBox="0 0 1025 1024" version="1.1" xmlns="http://www.w3.org/2000/svg" p-id="4761" xmlns:xlink="http://www.w3.org/1999/xlink" width="200.1953125" height="200"><defs><style type="text/css">@font-face { font-family: yourDictFontAwesome; src: url("chrome-extension://gadchikmclhpfefmocfeadjhljpmnekj/lib/fontawesome-webfont.ttf") format("truetype"); font-weight: normal; font-style: normal; }
</style></defs><path d="M78.911403 999.94608A79.126168 79.126168 0 0 1 0.002614 920.167773V78.908788A79.126168 79.126168 0 0 1 78.911403 0h707.787921a79.126168 79.126168 0 0 1 78.908788 78.908788v347.807333h-79.560927v-347.807333H79.346162v840.824226h404.760783V999.94608z" p-id="4762" fill="#ffffff"></path><path d="M253.901967 450.627875a39.780464 39.780464 0 0 1-34.345974-19.781542 40.432602 40.432602 0 0 1 0-39.780464 39.997843 39.997843 0 0 1 34.345974-19.781542h353.024442a39.780464 39.780464 0 0 1 28.041966 67.82243 39.128325 39.128325 0 0 1-27.607207 11.521118H253.901967zM856.47817 1021.684038a47.171369 47.171369 0 0 1-46.519231-47.606129 48.258267 48.258267 0 0 1 8.260424-27.172447l11.955877-17.390367h-173.903666l11.955877 17.390367a48.475647 48.475647 0 0 1 8.477804 27.172447 46.73661 46.73661 0 1 1-93.255841 0 47.606129 47.606129 0 0 1 8.695183-27.389827l10.6516-15.216571-18.477265-2.173796a57.38821 57.38821 0 0 1-48.910406-44.780194l-61.301042-230.857116a58.040349 58.040349 0 0 1 9.129942-49.997304 55.866553 55.866553 0 0 1 45.214954-23.042236h409.108374l11.738497-72.604781a36.51977 36.51977 0 0 1 14.999192-24.346513 34.563354 34.563354 0 0 1 21.737958-6.956146h6.086628a37.606668 37.606668 0 0 1 30.215762 43.475916l-59.127246 361.067487a56.518691 56.518691 0 0 1-55.649173 48.258267h-24.781273l11.738498 17.390367A47.606129 47.606129 0 0 1 856.47817 1021.684038z m-252.377696-166.51276h288.897466l32.389557-199.989216H550.190338zM253.901967 290.636502a39.345704 39.345704 0 0 1-34.345974-19.781542 40.215223 40.215223 0 0 1 0-39.563084 39.563084 39.563084 0 0 1 34.345974-19.998922h353.024442a39.780464 39.780464 0 1 1 0 79.343548zM253.901967 616.705876a39.780464 39.780464 0 0 1-34.345974-19.781542 40.432602 40.432602 0 0 1 0-39.780464 39.997843 39.997843 0 0 1 34.345974-19.781542h122.602084a39.780464 39.780464 0 1 1 0 79.343548z" p-id="4763" fill="#ffffff"></path><path d="M646.706873 773.871314a24.781272 24.781272 0 1 1 0-49.345165H847.782986a24.781272 24.781272 0 1 1 0 49.345165z" p-id="4764" fill="#ffffff"></path></svg>