<?xml version="1.0" standalone="no"?><!DOCTYPE svg PUBLIC "-//W3C//DTD SVG 1.1//EN" "http://www.w3.org/Graphics/SVG/1.1/DTD/svg11.dtd"><svg t="1578377215035" class="icon" viewBox="0 0 2792 1024" version="1.1" xmlns="http://www.w3.org/2000/svg" p-id="5139" xmlns:xlink="http://www.w3.org/1999/xlink" width="545.3125" height="200"><defs><style type="text/css">@font-face { font-family: yourDictFontAwesome; src: url("chrome-extension://gadchikmclhpfefmocfeadjhljpmnekj/lib/fontawesome-webfont.ttf") format("truetype"); font-weight: normal; font-style: normal; }
</style></defs><path d="M0 0m53.872757 0l1508.437189 0q53.872757 0 53.872757 53.872757l0 484.854811q0 53.872757-53.872757 53.872756l-1508.437189 0q-53.872757 0-53.872757-53.872756l0-484.854811q0-53.872757 53.872757-53.872757Z" fill="#29ABFF" p-id="5140"></path><path d="M297.539236 183.167373h-30.545854v-11.313279a2.208783 2.208783 0 0 0-2.15491-2.262656h-15.892463a2.262656 2.262656 0 0 0-2.262656 2.262656V183.167373h-43.098205v-11.313279a2.208783 2.208783 0 0 0-2.101038-2.262656h-15.83859a2.262656 2.262656 0 0 0-2.262656 2.262656V183.167373h-30.545853a9.050623 9.050623 0 0 0-9.050623 9.050623V226.265578h-26.936379A9.050623 9.050623 0 0 0 107.745514 235.10071v178.749807a9.050623 9.050623 0 0 0 9.050623 9.050624h144.594479a9.050623 9.050623 0 0 0 8.99675-9.050624v-26.936378h26.936379a9.050623 9.050623 0 0 0 9.050623-9.050623V192.325742a9.050623 9.050623 0 0 0-8.835132-9.158369z m-47.461899 219.26212H128.00167V246.575608h61.576561v49.185827a11.313279 11.313279 0 0 0 11.313279 11.313279h49.185827v95.462524z m0-113.563771h-42.39786v-42.290114l42.343987 42.290114zM286.225957 366.334746h-15.838591V280.138335L216.1375 226.265578h-51.98721v-22.626557H183.167373v9.158368a2.262656 2.262656 0 0 0 2.262656 2.262656h16.054081a2.262656 2.262656 0 0 0 2.262656-2.262656v-9.212241h43.098205v9.212241a2.262656 2.262656 0 0 0 2.262656 2.262656h15.838591a2.208783 2.208783 0 0 0 2.047164-2.262656v-9.212241h19.232575V366.334746z" fill="#FFFFFF" p-id="5141"></path></svg>