<?xml version="1.0" standalone="no"?><!DOCTYPE svg PUBLIC "-//W3C//DTD SVG 1.1//EN" "http://www.w3.org/Graphics/SVG/1.1/DTD/svg11.dtd"><svg t="1578627957324" class="icon" viewBox="0 0 1077 1024" version="1.1" xmlns="http://www.w3.org/2000/svg" p-id="5032" xmlns:xlink="http://www.w3.org/1999/xlink" width="210.3515625" height="200"><defs><style type="text/css">@font-face { font-family: yourDictFontAwesome; src: url("chrome-extension://gadchikmclhpfefmocfeadjhljpmnekj/lib/fontawesome-webfont.ttf") format("truetype"); font-weight: normal; font-style: normal; }
</style></defs><path d="M1064.891528 933.363934l-98.042407-98.042407a241.402194 241.402194 0 1 0-339.880345 37.909731 35.948883 35.948883 0 0 0-31.37357 2.17872l-91.288375 52.9429V518.099872l362.756907-205.889055v97.388791a34.859523 34.859523 0 0 0 34.859522 34.64165h6.318289a34.859523 34.859523 0 0 0 34.859522-34.64165v-159.91806a40.306323 40.306323 0 0 0 0-5.228928v-10.457857H937.436399a53.596516 53.596516 0 0 0-19.172738-13.072321L484.916222 3.921914a34.641651 34.641651 0 0 0-16.12253-3.921696 36.166755 36.166755 0 0 0-15.904657 3.703824L19.541596 220.486698A46.624611 46.624611 0 0 0 0.58673 265.804077v462.324418a35.513139 35.513139 0 0 0 16.994017 30.28421C87.735537 801.11562 442.213307 1014.630196 449.403083 1017.898276a50.110564 50.110564 0 0 0 21.787202 6.100417 36.602499 36.602499 0 0 0 17.647633-4.357441L632.415576 937.939246a37.256115 37.256115 0 0 0 16.776146-21.787201 35.948883 35.948883 0 0 0-3.703825-27.234002 29.848466 29.848466 0 0 0-3.26808-4.575312 240.748578 240.748578 0 0 0 261.446419 7.189776l101.746232 101.746232a41.831427 41.831427 0 0 0 29.630594 12.200832 41.395683 41.395683 0 0 0 29.848466-12.418704 42.049299 42.049299 0 0 0 12.418705-29.630595 40.524195 40.524195 0 0 0-12.418705-30.066338zM777.954083 515.267536a169.940172 169.940172 0 1 1-169.940172 169.940172 169.940172 169.940172 0 0 1 169.940172-169.940172zM71.177263 708.08427V312.428689l362.321163 205.671183v408.292158z m755.580152-454.263154L468.793692 457.531451 111.047842 253.821116l357.74585-178.872925z" p-id="5033" fill="#ffffff"></path><path d="M313.886689 495.876926l-144.231274-87.148806a36.820371 36.820371 0 0 0-18.30125-5.011057 37.909731 37.909731 0 0 0-8.497008 1.08936 35.295267 35.295267 0 0 0-21.787202 15.904658 35.731011 35.731011 0 0 0 11.982961 48.585459l144.449146 87.148807a35.513139 35.513139 0 0 0 18.30125 5.011056 37.473987 37.473987 0 0 0 8.497008 0 35.077395 35.077395 0 0 0 21.787202-16.340401 34.641651 34.641651 0 0 0 4.139568-26.580386 35.077395 35.077395 0 0 0-16.340401-22.65869z" p-id="5034" fill="#ffffff"></path></svg>