<?xml version="1.0" standalone="no"?><!DOCTYPE svg PUBLIC "-//W3C//DTD SVG 1.1//EN" "http://www.w3.org/Graphics/SVG/1.1/DTD/svg11.dtd"><svg t="1578467298548" class="icon" viewBox="0 0 1258 1024" version="1.1" xmlns="http://www.w3.org/2000/svg" p-id="3946" xmlns:xlink="http://www.w3.org/1999/xlink" width="245.703125" height="200"><defs><style type="text/css">@font-face { font-family: yourDictFontAwesome; src: url("chrome-extension://gadchikmclhpfefmocfeadjhljpmnekj/lib/fontawesome-webfont.ttf") format("truetype"); font-weight: normal; font-style: normal; }
</style></defs><path d="M0 353.440398c2.252261-12.899314 3.890269-25.798629 6.552033-38.697944a354.01452 354.01452 0 0 1 127.355136-206.798533A470.927354 470.927354 0 0 1 393.531467 2.906646 516.586832 516.586832 0 0 1 669.535847 49.79463a413.597068 413.597068 0 0 1 194.718223 178.747643 324.530372 324.530372 0 0 1 30.712654 83.743169c-10.442302 0-20.475102-1.433257-29.279396-1.638008-125.512377-2.252261-232.597163 39.92645-313.678568 137.387937a323.301866 323.301866 0 0 0-67.97734 295.660478c0 2.866514 1.433257 5.733029 2.04751 8.599543a19.246596 19.246596 0 0 1 0 3.480767 322.687613 322.687613 0 0 1-86.609683 0c-33.579168-4.914025-66.544083-11.875559-100.123251-17.199086a30.303151 30.303151 0 0 0-18.01809 2.457012c-46.478482 21.90836-92.342712 45.045225-138.00219 68.182091l-8.19004 3.685519c5.528278-17.199086 10.442302-32.760164 15.561077-48.116491 8.190041-25.184376 16.380082-50.368752 25.389127-75.143625a11.670808 11.670808 0 0 0-5.528277-16.380082 445.742978 445.742978 0 0 1-119.574598-122.850614 313.473817 313.473817 0 0 1-49.140246-139.230697 73.300866 73.300866 0 0 0-1.842759-9.213796z m300.574503-163.800819a73.91512 73.91512 0 0 0-49.549748 18.222841 48.525993 48.525993 0 0 0-2.866514 71.458107 72.686613 72.686613 0 0 0 46.478482 20.475103 53.235266 53.235266 0 0 0 61.425307-52.416262 52.621013 52.621013 0 0 0-55.487527-57.739789z m368.551842 55.692278a51.392507 51.392507 0 0 0-40.950205-54.05427 72.481862 72.481862 0 0 0-61.425307 12.899315 49.140246 49.140246 0 0 0-1.842759 80.467152 74.324622 74.324622 0 0 0 47.706988 16.175331A52.621013 52.621013 0 0 0 668.512092 245.94611z" fill="#dbdbdb" p-id="3947"></path><path d="M1135.753928 1024l-78.419642-40.950205c-11.875559-6.347282-23.546368-13.513568-35.626678-19.246596a26.412882 26.412882 0 0 0-16.380082-1.842759 519.043845 519.043845 0 0 1-119.9841 20.475102c-125.102875 0-233.825669-40.950205-315.930829-138.206941a286.651433 286.651433 0 0 1 9.213796-380.836903 385.750928 385.750928 0 0 1 239.353946-122.850615 412.982815 412.982815 0 0 1 282.146911 58.149291 327.601638 327.601638 0 0 1 145.577977 178.133391c5.93778 18.01809 8.599543 36.855184 12.899315 55.487527v52.211511a27.436637 27.436637 0 0 0-1.842759 5.323527 262.695563 262.695563 0 0 1-36.036181 100.328001 429.977149 429.977149 0 0 1-108.518042 118.346092 13.92307 13.92307 0 0 0-6.142531 18.222841c10.442302 31.122156 20.0656 64.291821 29.688899 97.256736zM759.626297 601.598638a59.582548 59.582548 0 0 0 37.674189-12.899314 37.878939 37.878939 0 0 0 0-62.653813 79.443397 79.443397 0 0 0-31.736409-12.489813 46.683233 46.683233 0 0 0-52.00676 42.383462 47.502237 47.502237 0 0 0 46.06898 45.659478z m245.701229 0a57.739789 57.739789 0 0 0 40.950204-16.994335 37.469437 37.469437 0 0 0 0-55.897029 61.425307 61.425307 0 0 0-36.03618-16.584833 47.706988 47.706988 0 0 0-51.597258 42.588213 46.887984 46.887984 0 0 0 46.273732 46.887984z" fill="#dbdbdb" p-id="3948"></path></svg>