<?xml version="1.0" standalone="no"?><!DOCTYPE svg PUBLIC "-//W3C//DTD SVG 1.1//EN" "http://www.w3.org/Graphics/SVG/1.1/DTD/svg11.dtd"><svg t="1578463589402" class="icon" viewBox="0 0 1024 1024" version="1.1" xmlns="http://www.w3.org/2000/svg" p-id="3812" xmlns:xlink="http://www.w3.org/1999/xlink" width="200" height="200"><defs><style type="text/css">@font-face { font-family: yourDictFontAwesome; src: url("chrome-extension://gadchikmclhpfefmocfeadjhljpmnekj/lib/fontawesome-webfont.ttf") format("truetype"); font-weight: normal; font-style: normal; }
</style></defs><path d="M941.383197 776.696425c-4.19379-26.983301-9.1028-53.869071-15.24719-80.429741-18.46568-79.616992-50.097911-154.715093-81.275002-229.943235a186.379834 186.379834 0 0 1-14.27189-73.147501c0.94279-77.178742-12.0287-151.984253-46.326751-221.750715C728.637753 57.997841 637.349671 0.55267 512.056129 0 386.762586 0.55267 295.474504 57.997841 239.752363 171.425233 205.486823 241.191695 192.515332 315.997206 193.425612 393.175948a186.379834 186.379834 0 0 1-14.27189 73.147501c-31.047051 75.228141-62.679281 150.326243-81.275002 229.943235-6.14439 26.560671-11.0534 53.446441-15.24719 80.429741-11.60607 74.415391 14.10934 73.635151 34.948251 47.529621 18.23811-22.757 35.761001-46.196711 53.251381-69.506381l0.84526-1.10534a7.73738 7.73738 0 0 1 13.88177 3.60861c9.753 68.888691 41.482761 124.643342 89.760112 171.327703a7.73738 7.73738 0 0 1-2.11315 12.58137l-54.421741 25.292781a20.22122 20.22122 0 0 0-4.35634 2.17817c-10.66328 8.64766-25.780431 15.53978-21.294051 32.737571 4.12877 15.79986 20.22122 15.63731 32.184901 16.54759 43.075751 3.251 86.281542 6.502 129.422312 6.04686 44.701251-0.52016 89.304972-6.502 134.038733-8.02997 7.70487-0.26008 15.44225-0.19506 23.147121 0s15.44225-0.29259 23.14712 0c44.733761 1.56048 89.337482 7.50981 134.071243 8.02997 43.108261 0.52016 86.314052-2.86088 129.389802-6.04686 11.96368-0.91028 28.056131-0.74773 32.184901-16.54759 4.48638-17.19779-10.63077-24.08991-21.294051-32.737571a20.22122 20.22122 0 0 0-4.35634-2.17817l-54.421741-25.292781a7.73738 7.73738 0 0 1-2.11315-12.58137c48.309861-46.684361 80.072132-102.439012 89.760112-171.327703a7.73738 7.73738 0 0 1 13.88177-3.60861l0.84526 1.10534c17.5554 23.30967 35.045781 46.716871 53.251381 69.506381 20.96895 26.105531 46.684361 26.885771 35.110801-47.529621z" p-id="3813"></path></svg>