<?xml version="1.0" standalone="no"?><!DOCTYPE svg PUBLIC "-//W3C//DTD SVG 1.1//EN" "http://www.w3.org/Graphics/SVG/1.1/DTD/svg11.dtd"><svg t="1578463320353" class="icon" viewBox="0 0 1024 1024" version="1.1" xmlns="http://www.w3.org/2000/svg" p-id="4730" xmlns:xlink="http://www.w3.org/1999/xlink" width="200" height="200"><defs><style type="text/css">@font-face { font-family: yourDictFontAwesome; src: url("chrome-extension://gadchikmclhpfefmocfeadjhljpmnekj/lib/fontawesome-webfont.ttf") format("truetype"); font-weight: normal; font-style: normal; }
</style></defs><path d="M511.827017 808.872359a131.205346 131.205346 0 0 0 124.041247-79.419149 20.468853 20.468853 0 0 0 0-3.479705 8.39223 8.39223 0 0 0-13.304754-7.164098 201.41351 201.41351 0 0 1-198.957248 24.767312 8.39223 8.39223 0 0 0-10.439115 12.076623 122.813116 122.813116 0 0 0 98.65987 53.219017z" fill="#515151" p-id="4731"></path><path d="M1010.857645 426.718879a77.167575 77.167575 0 0 0-67.342526-84.536361c-13.509443-1.842197-17.398525-7.778164-20.468852-20.468853a436.19125 436.19125 0 0 0-55.67528-122.813116 429.845906 429.845906 0 0 0-741.586532 28.247017 448.472562 448.472562 0 0 0-44.826787 118.10528 26.609508 26.609508 0 0 1-14.737574 13.91882A78.600394 78.600394 0 0 0 12.182323 433.678289v159.657051a81.875411 81.875411 0 0 0 59.359673 78.395706 77.576952 77.576952 0 0 0 69.38941-13.91882 418.997414 418.997414 0 0 0 71.436296 86.17387 371.100299 371.100299 0 0 0 131.000657 102.344263 8.187541 8.187541 0 0 0 5.526591 0 9.006295 9.006295 0 0 0 4.707836-15.556328 359.433053 359.433053 0 0 1-97.841116-184.219674 96.203608 96.203608 0 0 1 79.828525-118.514657c65.500329-13.100066 131.410034-24.972 196.910363-38.481443s99.888001-49.944 111.759935-116.67246a77.576952 77.576952 0 0 1 9.210984-19.036033c5.731279 4.298459 13.509443 7.368787 17.193836 13.100066a470.783611 470.783611 0 0 1 86.378559 266.095084c0 71.436296-18.421967 133.252231-69.594099 184.219674l-4.503148 4.298459a35.820492 35.820492 0 0 0-6.95941 11.462558 3.684393 3.684393 0 0 0 0 2.046885 4.093771 4.093771 0 0 0 1.842197 3.479705 4.503148 4.503148 0 0 0 4.503147 0 365.778397 365.778397 0 0 0 117.286526-97.841116 428.617775 428.617775 0 0 0 77.986329-98.455181l34.797049 22.106361a291.885839 291.885839 0 0 1-61.406558 125.269378c-68.365968 81.875411-159.247674 122.813116-263.229445 137.141313a31.93141 31.93141 0 0 1-36.434558-14.123508 67.956591 67.956591 0 0 0-81.87541-20.468853 65.705017 65.705017 0 0 0-43.803345 66.933148 68.365968 68.365968 0 0 0 50.967443 61.406558 69.594099 69.594099 0 0 0 81.875411-32.545476 30.703279 30.703279 0 0 1 23.948557-14.942262 992.329977 992.329977 0 0 0 143.281969-36.843935 368.439348 368.439348 0 0 0 233.140232-266.913839 36.229869 36.229869 0 0 1 14.328197-18.217279 78.805083 78.805083 0 0 0 37.662689-65.090951z m-153.721084-44.41741c-70.412853-149.627313-185.652494-236.21056-351.245512-236.619937S223.625571 230.217894 155.464292 381.278026h-5.731279a96.408296 96.408296 0 0 1 0-18.831344 363.322135 363.322135 0 0 1 709.655122-3.479705 52.80964 52.80964 0 0 1-2.251574 23.334492z" fill="#515151" p-id="4732"></path></svg>