<?xml version="1.0" standalone="no"?><!DOCTYPE svg PUBLIC "-//W3C//DTD SVG 1.1//EN" "http://www.w3.org/Graphics/SVG/1.1/DTD/svg11.dtd"><svg t="1578463329988" class="icon" viewBox="0 0 1026 1024" version="1.1" xmlns="http://www.w3.org/2000/svg" p-id="4911" xmlns:xlink="http://www.w3.org/1999/xlink" width="200.390625" height="200"><defs><style type="text/css">@font-face { font-family: yourDictFontAwesome; src: url("chrome-extension://gadchikmclhpfefmocfeadjhljpmnekj/lib/fontawesome-webfont.ttf") format("truetype"); font-weight: normal; font-style: normal; }
</style></defs><path d="M803.0208 1024a617.472 617.472 0 0 1-245.76-66.9696 1033.8304 1033.8304 0 0 1-253.5424-181.6576A1427.0464 1427.0464 0 0 1 94.0032 532.48a527.1552 527.1552 0 0 1-86.6304-201.728c-13.1072-77.2096-11.264-153.3952 27.0336-225.28A250.4704 250.4704 0 0 1 121.0368 11.264a74.752 74.752 0 0 1 90.3168 9.216c29.0816 26.4192 56.1152 54.8864 83.968 81.92s50.176 49.9712 75.1616 75.1616a81.92 81.92 0 0 1 0 122.88C348.16 324.1984 323.1744 348.16 299.008 371.712c-4.096 4.096-6.144 7.168-2.8672 13.312a815.9232 815.9232 0 0 0 178.5856 233.0624 953.9584 953.9584 0 0 0 166.912 111.8208c6.5536 3.6864 9.4208 0 13.1072-3.6864 23.7568-23.7568 47.3088-47.7184 71.4752-71.0656a80.4864 80.4864 0 0 1 102.4-14.9504 304.128 304.128 0 0 1 46.08 40.96l122.88 122.88a81.92 81.92 0 0 1 5.9392 118.5792 275.2512 275.2512 0 0 1-109.3632 81.92 235.7248 235.7248 0 0 1-91.136 19.456zM655.36 795.8528c-38.7072-22.7328-76.8-44.2368-114.0736-67.1744A703.2832 703.2832 0 0 1 327.68 528.7936c-33.792-48.7424-61.44-101.376-93.3888-152.1664-3.8912-6.144 0-9.4208 3.072-13.312l98.304-98.304a33.1776 33.1776 0 0 0 0-51.6096L184.32 61.44a30.9248 30.9248 0 0 0-47.104-2.6624A383.3856 383.3856 0 0 0 85.4016 118.784c-39.3216 61.44-40.96 128.2048-30.9248 196.608a455.0656 455.0656 0 0 0 74.3424 180.4288 1185.5872 1185.5872 0 0 0 132.5056 165.888A1252.9664 1252.9664 0 0 0 489.472 860.16 689.152 689.152 0 0 0 737.28 965.632a307.2 307.2 0 0 0 83.1488 6.3488 217.4976 217.4976 0 0 0 144.9984-81.92 33.1776 33.1776 0 0 0-2.048-49.3568l-147.2512-147.0464c-20.48-20.48-37.2736-20.48-58.7776 0z" fill="#515151" p-id="4912"></path></svg>